<?xml version="1.0" encoding="UTF-8" standalone="no"?>
<!-- Created with Inkscape (http://www.inkscape.org/) -->

<svg
   width="512"
   height="512"
   viewBox="0 0 135.46667 135.46667"
   version="1.1"
   id="svg1"
   inkscape:version="1.4 (1:1.4+202410161351+e7c3feb100)"
   sodipodi:docname="noetherian.svg"
   xmlns:inkscape="http://www.inkscape.org/namespaces/inkscape"
   xmlns:sodipodi="http://sodipodi.sourceforge.net/DTD/sodipodi-0.dtd"
   xmlns="http://www.w3.org/2000/svg"
   xmlns:svg="http://www.w3.org/2000/svg"
   xmlns:ns10="http://www.iki.fi/pav/software/textext/">
  <sodipodi:namedview
     id="namedview1"
     pagecolor="#ffffff"
     bordercolor="#666666"
     borderopacity="1.0"
     inkscape:showpageshadow="2"
     inkscape:pageopacity="0.0"
     inkscape:pagecheckerboard="0"
     inkscape:deskcolor="#d1d1d1"
     inkscape:document-units="mm"
     inkscape:zoom="1"
     inkscape:cx="362"
     inkscape:cy="362.5"
     inkscape:window-width="1850"
     inkscape:window-height="1009"
     inkscape:window-x="1990"
     inkscape:window-y="34"
     inkscape:window-maximized="1"
     inkscape:current-layer="layer1" />
  <defs
     id="defs1" />
  <g
     inkscape:label="Layer 1"
     inkscape:groupmode="layer"
     id="layer1">
    <g
       transform="matrix(2.2664689,0,0,2.2664689,14.816781,47.404694)"
       ns10:version="1.10.2"
       ns10:texconverter="pdflatex"
       ns10:pdfconverter="inkscape"
       ns10:text="$\\mathbb{Z} \\! \\left[ \\frac{1 + \\sqrt{-19}}{2} \\right] $"
       ns10:preamble="/home/mei/Documents/MagicalModality/mystyle.sty"
       ns10:scale="1.0"
       ns10:alignment="middle center"
       ns10:stroke-to-path="0"
       ns10:jacobian_sqrt="0.352778"
       id="g11">
      <defs
         id="id-2e9228f8-dbbc-43ae-a4fb-784dadcb11a9">
        <g
           id="id-6e55ec4d-3d1c-4aa2-8172-be1b5597b41a">
          <symbol
             overflow="visible"
             id="id-93a53830-8778-47b6-bc71-400b37cd3ff6">
            <path
               style="stroke:none;stroke-width:0"
               d=""
               id="id-cf31bd7d-5daa-40c0-b9e1-f6809c6a023d" />
          </symbol>
          <symbol
             overflow="visible"
             id="id-6cdd6315-0fde-4665-a005-cfa226adcda4">
            <path
               style="stroke:none;stroke-width:0"
               d="m 5.9375,-6.46875 c 0.09375,-0.125 0.09375,-0.15625 0.09375,-0.1875 0,-0.171875 -0.15625,-0.171875 -0.328125,-0.171875 h -4.5625 c -0.328125,0 -0.328125,0.03125 -0.359375,0.28125 L 0.640625,-5.1875 0.625,-5.0625 c 0,0.140625 0.109375,0.1875 0.171875,0.1875 0.09375,0 0.15625,-0.0625 0.171875,-0.15625 0.03125,-0.234375 0.125,-0.671875 0.734375,-1.046875 0.5625,-0.375 1.265625,-0.40625 1.609375,-0.40625 h 0.796875 l -3.734375,6.125 c -0.09375,0.125 -0.09375,0.15625 -0.09375,0.1875 C 0.28125,0 0.4375,0 0.625,0 H 5.734375 C 6.03125,0 6.03125,-0.015625 6.078125,-0.28125 L 6.34375,-2.25 C 6.34375,-2.359375 6.25,-2.421875 6.171875,-2.421875 6.015625,-2.421875 6,-2.328125 5.96875,-2.125 5.796875,-1.3125 5.03125,-0.34375 3.609375,-0.34375 H 2.1875 Z M 1.125,-6.484375 h 0.53125 v 0.015625 c -0.265625,0.15625 -0.453125,0.328125 -0.578125,0.4375 z m 3.40625,0 H 5.546875 L 1.78125,-0.34375 H 0.765625 Z m 0.515625,6.125 c 0.28125,-0.15625 0.546875,-0.375 0.78125,-0.65625 -0.03125,0.203125 -0.046875,0.3125 -0.09375,0.671875 h -0.6875 z m 0,0"
               id="id-84e4c39a-5dc6-4308-befa-01c8fe8e843b" />
          </symbol>
          <symbol
             overflow="visible"
             id="id-99b62af5-6b0e-4ccf-b14f-e9e2bf93c1ea">
            <path
               style="stroke:none;stroke-width:0"
               d=""
               id="id-6b2c59e0-8ec9-418b-a0a3-21f645040cf3" />
          </symbol>
          <symbol
             overflow="visible"
             id="id-ab8f21a1-81ee-4852-8860-200bed87c7bf">
            <path
               style="stroke:none;stroke-width:0"
               d="M 2.25,17.53125 H 4.515625 V 17.0625 H 2.71875 v -17 H 4.515625 V -0.40625 H 2.25 Z m 0,0"
               id="id-ec37b36f-d7a1-49e8-bbf3-619aedbb83d5" />
          </symbol>
          <symbol
             overflow="visible"
             id="id-ca49e432-4313-4692-b9c6-8a022b8246ca">
            <path
               style="stroke:none;stroke-width:0"
               d="M 1.96875,17.0625 H 0.171875 v 0.46875 H 2.4375 V -0.40625 H 0.171875 V 0.0625 H 1.96875 Z m 0,0"
               id="id-4c48f269-92c6-458e-8ac7-ed0bc9ad8c4f" />
          </symbol>
          <symbol
             overflow="visible"
             id="id-4b38e39b-e281-4ac5-bda0-d31f98f9730f">
            <path
               style="stroke:none;stroke-width:0"
               d=""
               id="id-fd27bb40-bc38-4053-a894-0649f0303ef6" />
          </symbol>
          <symbol
             overflow="visible"
             id="id-17e31c48-f260-4e47-baf0-b9dfae2ce3df">
            <path
               style="stroke:none;stroke-width:0"
               d="m 2.328125,-4.4375 c 0,-0.1875 0,-0.1875 -0.203125,-0.1875 -0.453125,0.4375 -1.078125,0.4375 -1.359375,0.4375 v 0.25 c 0.15625,0 0.625,0 1,-0.1875 v 3.546875 c 0,0.234375 0,0.328125 -0.6875,0.328125 H 0.8125 V 0 c 0.125,0 0.984375,-0.03125 1.234375,-0.03125 0.21875,0 1.09375,0.03125 1.25,0.03125 V -0.25 H 3.03125 c -0.703125,0 -0.703125,-0.09375 -0.703125,-0.328125 z m 0,0"
               id="id-a1d6651e-6af5-410f-83bb-f07af0baed37" />
          </symbol>
          <symbol
             overflow="visible"
             id="id-1d5c97ac-69b5-4606-ba46-f846c2fdce3d">
            <path
               style="stroke:none;stroke-width:0"
               d="m 3.21875,-1.578125 h 2.140625 c 0.09375,0 0.25,0 0.25,-0.15625 0,-0.1875 -0.15625,-0.1875 -0.25,-0.1875 H 3.21875 V -4.0625 c 0,-0.078125 0,-0.25 -0.15625,-0.25 -0.171875,0 -0.171875,0.15625 -0.171875,0.25 v 2.140625 H 0.75 c -0.09375,0 -0.265625,0 -0.265625,0.171875 0,0.171875 0.15625,0.171875 0.265625,0.171875 H 2.890625 V 0.5625 c 0,0.09375 0,0.265625 0.15625,0.265625 0.171875,0 0.171875,-0.171875 0.171875,-0.265625 z m 0,0"
               id="id-11404d55-a836-4792-8169-7874a63bc3f9" />
          </symbol>
          <symbol
             overflow="visible"
             id="id-6ef10eb4-e303-4607-8427-fec2e8b30b6f">
            <path
               style="stroke:none;stroke-width:0"
               d="m 2.90625,-2.078125 c 0,1.734375 -0.84375,2 -1.265625,2 -0.15625,0 -0.53125,-0.015625 -0.71875,-0.234375 0.296875,-0.03125 0.3125,-0.265625 0.3125,-0.328125 0,-0.171875 -0.125,-0.328125 -0.328125,-0.328125 -0.203125,0 -0.328125,0.140625 -0.328125,0.34375 0,0.46875 0.390625,0.765625 1.0625,0.765625 1,0 1.9375,-0.9375 1.9375,-2.4375 C 3.578125,-4.015625 2.8125,-4.625 2,-4.625 c -0.234375,0 -0.703125,0.03125 -1.109375,0.421875 -0.234375,0.234375 -0.515625,0.5 -0.515625,1.125 0,0.890625 0.703125,1.546875 1.515625,1.546875 0.5625,0 0.859375,-0.375 1.015625,-0.6875 z m -0.96875,0.34375 c -0.28125,0 -0.53125,-0.078125 -0.734375,-0.40625 -0.15625,-0.25 -0.15625,-0.546875 -0.15625,-0.9375 0,-0.40625 0,-0.671875 0.203125,-0.953125 0.171875,-0.25 0.390625,-0.390625 0.75,-0.390625 0.359375,0 0.578125,0.21875 0.6875,0.40625 0.1875,0.28125 0.203125,0.78125 0.203125,1.015625 0,0.90625 -0.515625,1.265625 -0.953125,1.265625 z m 0,0"
               id="id-b07bc6c6-e53f-480c-b8a2-ddb32ae64e30" />
          </symbol>
          <symbol
             overflow="visible"
             id="id-4cde6f2d-7a1e-46fc-9f07-35e1654986d5">
            <path
               style="stroke:none;stroke-width:0"
               d="M 3.515625,-1.265625 H 3.28125 c -0.015625,0.15625 -0.09375,0.5625 -0.1875,0.625 C 3.046875,-0.59375 2.515625,-0.59375 2.40625,-0.59375 H 1.125 c 0.734375,-0.640625 0.984375,-0.84375 1.390625,-1.171875 0.515625,-0.40625 1,-0.84375 1,-1.5 0,-0.84375 -0.734375,-1.359375 -1.625,-1.359375 -0.859375,0 -1.453125,0.609375 -1.453125,1.25 0,0.34375 0.296875,0.390625 0.375,0.390625 0.15625,0 0.359375,-0.125 0.359375,-0.375 0,-0.125 -0.046875,-0.375 -0.40625,-0.375 C 0.984375,-4.21875 1.453125,-4.375 1.78125,-4.375 c 0.703125,0 1.0625,0.546875 1.0625,1.109375 0,0.609375 -0.4375,1.078125 -0.65625,1.328125 L 0.515625,-0.265625 C 0.4375,-0.203125 0.4375,-0.1875 0.4375,0 h 2.875 z m 0,0"
               id="id-8e42f61d-892f-4a95-82c7-4a735eaeda75" />
          </symbol>
          <symbol
             overflow="visible"
             id="id-554b87b5-0e27-48f4-8a04-aeed8d25e2d1">
            <path
               style="stroke:none;stroke-width:0"
               d=""
               id="id-3b66c003-496e-45ce-afa1-12b4ff49ed3f" />
          </symbol>
          <symbol
             overflow="visible"
             id="id-ccdae08c-4c5b-4a56-8514-a7dbb03bcdbe">
            <path
               style="stroke:none;stroke-width:0"
               d="M 3.09375,5.875 1.71875,3.15625 C 1.6875,3.09375 1.671875,3.046875 1.609375,3.046875 c -0.03125,0 -0.046875,0 -0.109375,0.046875 l -0.75,0.5 C 0.65625,3.65625 0.65625,3.6875 0.65625,3.71875 0.65625,3.75 0.6875,3.8125 0.75,3.8125 c 0.03125,0 0.046875,0 0.140625,-0.0625 C 0.96875,3.6875 1.15625,3.546875 1.25,3.5 L 2.78125,6.515625 C 2.828125,6.609375 2.84375,6.625 2.9375,6.625 3,6.625 3.078125,6.625 3.140625,6.5 l 3.5,-6.53125 c 0.0625,-0.09375 0.0625,-0.09375 0.0625,-0.140625 0,-0.109375 -0.09375,-0.171875 -0.171875,-0.171875 -0.09375,0 -0.140625,0.0625 -0.171875,0.15625 z m 0,0"
               id="id-404b37cf-2736-4721-85a4-906b28310f65" />
          </symbol>
          <symbol
             overflow="visible"
             id="id-994cbdbf-be66-44a7-a483-45bae5f2087f">
            <path
               style="stroke:none;stroke-width:0"
               d="m 5.1875,-1.578125 c 0.109375,0 0.28125,0 0.28125,-0.15625 0,-0.1875 -0.171875,-0.1875 -0.28125,-0.1875 H 1.03125 c -0.109375,0 -0.28125,0 -0.28125,0.171875 0,0.171875 0.15625,0.171875 0.28125,0.171875 z m 0,0"
               id="id-11bacb34-51de-469e-831e-50b35bf403c5" />
          </symbol>
        </g>
      </defs>
      <g
         id="id-0818c458-fcb6-45ea-b4ab-864553ed9b41"
         transform="translate(-69.2253,-53.9917)">
        <g
           style="fill:#000000;fill-opacity:1"
           id="id-c34725ba-cc9a-4c64-8089-7e90b8c62620">
          <g
             transform="translate(68.944,65.457)"
             id="g1">
            <path
               style="stroke:none;stroke-width:0"
               d="m 5.9375,-6.46875 c 0.09375,-0.125 0.09375,-0.15625 0.09375,-0.1875 0,-0.171875 -0.15625,-0.171875 -0.328125,-0.171875 h -4.5625 c -0.328125,0 -0.328125,0.03125 -0.359375,0.28125 L 0.640625,-5.1875 0.625,-5.0625 c 0,0.140625 0.109375,0.1875 0.171875,0.1875 0.09375,0 0.15625,-0.0625 0.171875,-0.15625 0.03125,-0.234375 0.125,-0.671875 0.734375,-1.046875 0.5625,-0.375 1.265625,-0.40625 1.609375,-0.40625 h 0.796875 l -3.734375,6.125 c -0.09375,0.125 -0.09375,0.15625 -0.09375,0.1875 C 0.28125,0 0.4375,0 0.625,0 H 5.734375 C 6.03125,0 6.03125,-0.015625 6.078125,-0.28125 L 6.34375,-2.25 C 6.34375,-2.359375 6.25,-2.421875 6.171875,-2.421875 6.015625,-2.421875 6,-2.328125 5.96875,-2.125 5.796875,-1.3125 5.03125,-0.34375 3.609375,-0.34375 H 2.1875 Z M 1.125,-6.484375 h 0.53125 v 0.015625 c -0.265625,0.15625 -0.453125,0.328125 -0.578125,0.4375 z m 3.40625,0 H 5.546875 L 1.78125,-0.34375 H 0.765625 Z m 0.515625,6.125 c 0.28125,-0.15625 0.546875,-0.375 0.78125,-0.65625 -0.03125,0.203125 -0.046875,0.3125 -0.09375,0.671875 h -0.6875 z m 0,0"
               id="id-45699959-4ca2-4df1-956b-985ea7f23336" />
          </g>
        </g>
        <g
           style="fill:#000000;fill-opacity:1"
           id="id-051b1dec-bcbe-47ff-bac8-9f866bd70bd9">
          <g
             transform="translate(75.586,54.398)"
             id="g2">
            <path
               style="stroke:none;stroke-width:0"
               d="M 2.25,17.53125 H 4.515625 V 17.0625 H 2.71875 v -17 H 4.515625 V -0.40625 H 2.25 Z m 0,0"
               id="id-7f3617fa-a29b-4cfc-9241-4dbeaa5e7077" />
          </g>
        </g>
        <g
           style="fill:#000000;fill-opacity:1"
           id="id-2b0b7af3-fc0d-4e7b-b9c5-1ef1d60d5dcc">
          <g
             transform="translate(81.486,61.095)"
             id="g3">
            <path
               style="stroke:none;stroke-width:0"
               d="m 2.328125,-4.4375 c 0,-0.1875 0,-0.1875 -0.203125,-0.1875 -0.453125,0.4375 -1.078125,0.4375 -1.359375,0.4375 v 0.25 c 0.15625,0 0.625,0 1,-0.1875 v 3.546875 c 0,0.234375 0,0.328125 -0.6875,0.328125 H 0.8125 V 0 c 0.125,0 0.984375,-0.03125 1.234375,-0.03125 0.21875,0 1.09375,0.03125 1.25,0.03125 V -0.25 H 3.03125 c -0.703125,0 -0.703125,-0.09375 -0.703125,-0.328125 z m 0,0"
               id="id-169becb0-a9bf-4aaf-9aa4-acee5a0a9693" />
          </g>
          <g
             transform="translate(85.4576,61.095)"
             id="g4">
            <path
               style="stroke:none;stroke-width:0"
               d="m 3.21875,-1.578125 h 2.140625 c 0.09375,0 0.25,0 0.25,-0.15625 0,-0.1875 -0.15625,-0.1875 -0.25,-0.1875 H 3.21875 V -4.0625 c 0,-0.078125 0,-0.25 -0.15625,-0.25 -0.171875,0 -0.171875,0.15625 -0.171875,0.25 v 2.140625 H 0.75 c -0.09375,0 -0.265625,0 -0.265625,0.171875 0,0.171875 0.15625,0.171875 0.265625,0.171875 H 2.890625 V 0.5625 c 0,0.09375 0,0.265625 0.15625,0.265625 0.171875,0 0.171875,-0.171875 0.171875,-0.265625 z m 0,0"
               id="id-a73d5a2d-1c0a-4a5e-ba59-a7d96412ce91" />
          </g>
        </g>
        <g
           style="fill:#000000;fill-opacity:1"
           id="id-6c5e7cb2-c8e2-4964-a306-f39a45bb9334">
          <g
             transform="translate(91.573,55.734)"
             id="g5">
            <path
               style="stroke:none;stroke-width:0"
               d="M 3.09375,5.875 1.71875,3.15625 C 1.6875,3.09375 1.671875,3.046875 1.609375,3.046875 c -0.03125,0 -0.046875,0 -0.109375,0.046875 l -0.75,0.5 C 0.65625,3.65625 0.65625,3.6875 0.65625,3.71875 0.65625,3.75 0.6875,3.8125 0.75,3.8125 c 0.03125,0 0.046875,0 0.140625,-0.0625 C 0.96875,3.6875 1.15625,3.546875 1.25,3.5 L 2.78125,6.515625 C 2.828125,6.609375 2.84375,6.625 2.9375,6.625 3,6.625 3.078125,6.625 3.140625,6.5 l 3.5,-6.53125 c 0.0625,-0.09375 0.0625,-0.09375 0.0625,-0.140625 0,-0.109375 -0.09375,-0.171875 -0.171875,-0.171875 -0.09375,0 -0.140625,0.0625 -0.171875,0.15625 z m 0,0"
               id="id-2c0ee969-f18a-490e-a3f4-3196218faa8d" />
          </g>
        </g>
        <path
           style="fill:none;stroke:#000000;stroke-width:0.339;stroke-linecap:butt;stroke-linejoin:miter;stroke-miterlimit:10;stroke-opacity:1"
           d="M -8.125e-4,0.0015 H 14.167156"
           transform="matrix(1,0,0,-1,98.118,55.564)"
           id="id-64de8f8f-a95c-4e94-8e99-3261492d6803" />
        <g
           style="fill:#000000;fill-opacity:1"
           id="id-e6b15966-3c16-4964-b1f7-98eb4844db5b">
          <g
             transform="translate(98.118,61.095)"
             id="g6">
            <path
               style="stroke:none;stroke-width:0"
               d="m 5.1875,-1.578125 c 0.109375,0 0.28125,0 0.28125,-0.15625 0,-0.1875 -0.171875,-0.1875 -0.28125,-0.1875 H 1.03125 c -0.109375,0 -0.28125,0 -0.28125,0.171875 0,0.171875 0.15625,0.171875 0.28125,0.171875 z m 0,0"
               id="id-8cb3a150-b1be-42dc-8482-933b56be6100" />
          </g>
        </g>
        <g
           style="fill:#000000;fill-opacity:1"
           id="id-9df18a4d-aa5b-4c2a-b175-cbb5023f035d">
          <g
             transform="translate(104.345,61.095)"
             id="g7">
            <path
               style="stroke:none;stroke-width:0"
               d="m 2.328125,-4.4375 c 0,-0.1875 0,-0.1875 -0.203125,-0.1875 -0.453125,0.4375 -1.078125,0.4375 -1.359375,0.4375 v 0.25 c 0.15625,0 0.625,0 1,-0.1875 v 3.546875 c 0,0.234375 0,0.328125 -0.6875,0.328125 H 0.8125 V 0 c 0.125,0 0.984375,-0.03125 1.234375,-0.03125 0.21875,0 1.09375,0.03125 1.25,0.03125 V -0.25 H 3.03125 c -0.703125,0 -0.703125,-0.09375 -0.703125,-0.328125 z m 0,0"
               id="id-e3d66251-38a9-435b-9816-05cce7d83328" />
          </g>
          <g
             transform="translate(108.317,61.095)"
             id="g8">
            <path
               style="stroke:none;stroke-width:0"
               d="m 2.90625,-2.078125 c 0,1.734375 -0.84375,2 -1.265625,2 -0.15625,0 -0.53125,-0.015625 -0.71875,-0.234375 0.296875,-0.03125 0.3125,-0.265625 0.3125,-0.328125 0,-0.171875 -0.125,-0.328125 -0.328125,-0.328125 -0.203125,0 -0.328125,0.140625 -0.328125,0.34375 0,0.46875 0.390625,0.765625 1.0625,0.765625 1,0 1.9375,-0.9375 1.9375,-2.4375 C 3.578125,-4.015625 2.8125,-4.625 2,-4.625 c -0.234375,0 -0.703125,0.03125 -1.109375,0.421875 -0.234375,0.234375 -0.515625,0.5 -0.515625,1.125 0,0.890625 0.703125,1.546875 1.515625,1.546875 0.5625,0 0.859375,-0.375 1.015625,-0.6875 z m -0.96875,0.34375 c -0.28125,0 -0.53125,-0.078125 -0.734375,-0.40625 -0.15625,-0.25 -0.15625,-0.546875 -0.15625,-0.9375 0,-0.40625 0,-0.671875 0.203125,-0.953125 0.171875,-0.25 0.390625,-0.390625 0.75,-0.390625 0.359375,0 0.578125,0.21875 0.6875,0.40625 0.1875,0.28125 0.203125,0.78125 0.203125,1.015625 0,0.90625 -0.515625,1.265625 -0.953125,1.265625 z m 0,0"
               id="id-b9f082e9-ed42-46de-9759-c25c3b8ada90" />
          </g>
        </g>
        <path
           style="fill:none;stroke:#000000;stroke-width:0.398;stroke-linecap:butt;stroke-linejoin:miter;stroke-miterlimit:10;stroke-opacity:1"
           d="M -0.001625,0.00115625 H 30.799156"
           transform="matrix(1,0,0,-1,81.486,62.966)"
           id="id-23956653-6b4d-4745-88e6-1d4185c81dbe" />
        <g
           style="fill:#000000;fill-opacity:1"
           id="id-a934af6f-3040-40eb-b704-c7ec6dd16a93">
          <g
             transform="translate(94.901,68.893)"
             id="g9">
            <path
               style="stroke:none;stroke-width:0"
               d="M 3.515625,-1.265625 H 3.28125 c -0.015625,0.15625 -0.09375,0.5625 -0.1875,0.625 C 3.046875,-0.59375 2.515625,-0.59375 2.40625,-0.59375 H 1.125 c 0.734375,-0.640625 0.984375,-0.84375 1.390625,-1.171875 0.515625,-0.40625 1,-0.84375 1,-1.5 0,-0.84375 -0.734375,-1.359375 -1.625,-1.359375 -0.859375,0 -1.453125,0.609375 -1.453125,1.25 0,0.34375 0.296875,0.390625 0.375,0.390625 0.15625,0 0.359375,-0.125 0.359375,-0.375 0,-0.125 -0.046875,-0.375 -0.40625,-0.375 C 0.984375,-4.21875 1.453125,-4.375 1.78125,-4.375 c 0.703125,0 1.0625,0.546875 1.0625,1.109375 0,0.609375 -0.4375,1.078125 -0.65625,1.328125 L 0.515625,-0.265625 C 0.4375,-0.203125 0.4375,-0.1875 0.4375,0 h 2.875 z m 0,0"
               id="id-3806c890-d782-4784-b0fe-ebeeef92fd8d" />
          </g>
        </g>
        <g
           style="fill:#000000;fill-opacity:1"
           id="id-8f5b360f-2c1f-497d-94c2-917065a2a8c6">
          <g
             transform="translate(113.483,54.399)"
             id="g10">
            <path
               style="stroke:none;stroke-width:0"
               d="M 1.96875,17.0625 H 0.171875 v 0.46875 H 2.4375 V -0.40625 H 0.171875 V 0.0625 H 1.96875 Z m 0,0"
               id="id-9193b7ad-9f27-4560-a731-36410edb981e" />
          </g>
        </g>
      </g>
    </g>
    <g
       id="g14">
      <path
         sodipodi:type="star"
         style="fill:#ffe207;fill-opacity:1;stroke:#d40000;stroke-width:2.48902564;stroke-linecap:round;stroke-linejoin:miter;stroke-dasharray:none;stroke-opacity:1"
         id="path11"
         inkscape:flatsided="false"
         sodipodi:sides="16"
         sodipodi:cx="-4.5633802"
         sodipodi:cy="130.43661"
         sodipodi:r1="73.951836"
         sodipodi:r2="58.495903"
         sodipodi:arg1="-0.4015157"
         sodipodi:arg2="-0.20516616"
         inkscape:rounded="0"
         inkscape:randomized="0"
         d="m 63.507043,101.53521 -10.801346,16.98404 16.679884,11.26537 -16.478657,11.55772 11.099136,16.79095 -19.647241,4.37183 3.828644,19.76028 -19.824711,-3.47963 -4.024723,19.72127 -16.9840484,-10.80135 -11.2653642,16.67989 -11.5577174,-16.47866 -16.790955,11.09914 -4.37183,-19.64725 -19.760275,3.82865 3.479629,-19.82471 -19.721272,-4.02473 10.801347,-16.98404 -16.679885,-11.26537 16.478657,-11.55772 -11.099135,-16.79095 19.64724,-4.371831 -3.828644,-19.760275 19.824711,3.479629 4.024724,-19.721272 16.984048,10.801347 L -5.2153769,56.487654 6.342341,72.96631 23.133296,61.867175 l 4.37183,19.647241 19.760275,-3.828644 -3.47963,19.82471 z"
         transform="matrix(-0.66743565,0.22235322,0.17439758,0.21278014,53.255263,73.1355)"
         inkscape:transform-center-x="24.333043"
         inkscape:transform-center-y="13.691617" />
      <text
         xml:space="preserve"
         style="font-size:7.76111px;line-height:0.85;font-family:'TeX Gyre Pagella';-inkscape-font-specification:'TeX Gyre Pagella';fill:#ff0000;stroke-width:0.264583"
         x="52.644131"
         y="113.2628"
         id="text11"
         transform="rotate(-12.852283)"><tspan
           sodipodi:role="line"
           style="font-size:7.76111px;line-height:0.85;text-align:center;text-anchor:middle;fill:#ff0000;stroke-width:0.264583"
           x="52.644131"
           y="113.2628"
           id="tspan13">A SAMPLE </tspan><tspan
           sodipodi:role="line"
           style="font-size:7.76111px;line-height:0.85;text-align:center;text-anchor:middle;fill:#ff0000;stroke-width:0.264583"
           x="52.644131"
           y="119.85975"
           id="tspan14">NOETHERIAN RING</tspan></text>
    </g>
  </g>
</svg>
